<?xml version="1.0" standalone="no"?>
<!DOCTYPE svg PUBLIC "-//W3C//DTD SVG 20010904//EN" "http://www.w3.org/TR/2001/REC-SVG-20010904/DTD/svg10.dtd">
<svg version="1.0" xmlns="http://www.w3.org/2000/svg" width="150.000000pt" height="35.000000pt" viewBox="0 0 150.000000 47.000000">

  <g transform="translate(0.000000,45.000000) scale(0.0500000,-0.0500000)" fill="#063251" stroke="none">
    <path d="M2395 367 c-60 -127 -110 -236 -110 -242 0 -5 9 -10 20 -10 21 0 17
-7 171 313 l83 172 -27 0 c-25 0 -34 -14 -137 -233z" fill="#6BE675" />
    <path d="M711 579 c-13 -5 -36 -18 -52 -30 l-29 -20 0 25 c0 23 -4 26 -35 26
l-35 0 0 -200 0 -200 35 0 35 0 0 133 c0 156 13 193 74 216 46 17 109 2 128
-32 8 -14 15 -77 18 -167 l5 -145 33 -3 32 -3 0 126 c0 144 11 184 62 215 41
26 101 21 132 -9 19 -19 21 -36 26 -174 l5 -152 33 -3 32 -3 0 158 c0 106 -4
166 -13 183 -42 83 -183 95 -260 22 l-27 -26 -16 23 c-31 44 -123 64 -183 40z" />
    <path d="M1704 576 c-18 -8 -35 -19 -38 -25 -12 -18 -36 -12 -36 9 0 16 -7 20
-35 20 l-35 0 2 -197 3 -198 32 -3 32 -3 3 145 c3 144 3 145 32 175 16 16 42
33 57 36 38 9 96 -11 112 -38 7 -13 14 -79 17 -167 l5 -145 32 -3 31 -3 4 138
c3 124 5 141 26 170 40 56 127 67 168 21 16 -17 20 -42 24 -172 l5 -151 35 0
35 0 0 155 c0 133 -3 160 -18 183 -27 42 -75 67 -129 67 -58 0 -95 -13 -131
-48 l-27 -26 -16 23 c-33 47 -126 65 -190 37z" />
    <path d="M242 440 c-79 -38 -142 -74 -140 -80 3 -10 262 -130 280 -130 4 0 8
8 8 19 0 14 -25 29 -105 62 -58 24 -105 46 -105 49 0 3 47 29 105 58 81 40
105 56 105 72 0 11 -1 20 -2 20 -2 -1 -68 -32 -146 -70z" fill="#6BE675" />
    <path d="M2650 482 c0 -14 27 -31 100 -65 55 -25 100 -50 100 -55 0 -5 -45
-28 -100 -52 -76 -32 -100 -47 -100 -61 0 -10 3 -19 6 -19 16 0 284 124 284
131 0 8 -265 139 -282 139 -4 0 -8 -8 -8 -18z" />
    <path d="M1345 244 c-9 -9 -14 -23 -11 -31 3 -8 6 -16 6 -18 0 -3 9 -9 19 -15
30 -15 71 4 71 33 0 45 -52 64 -85 31z" fill="#6BE675" />
  </g>
</svg>